<svg xmlns="http://www.w3.org/2000/svg" xmlns:xlink="http://www.w3.org/1999/xlink" width="1920" zoomAndPan="magnify" viewBox="0 0 1440 809.999993" height="1080" preserveAspectRatio="xMidYMid meet" version="1.0"><defs><g/><clipPath id="bd05e85fa6"><path d="M 164.09375 133.402344 L 1259.84375 133.402344 L 1259.84375 635.902344 L 164.09375 635.902344 Z M 164.09375 133.402344 " clip-rule="nonzero"/></clipPath><clipPath id="7bac34ff38"><rect x="0" width="1179" y="0" height="131"/></clipPath></defs><g clip-path="url(#bd05e85fa6)"><path fill="#471e24" d="M 313.230469 520.015625 C 315.742188 498.925781 334.820312 497.296875 370.46875 515.371094 C 377.375 500.558594 386.539062 495.289062 397.960938 499.679688 C 479.425781 628.21875 560.136719 583.65625 585.367188 636.125 C 595.285156 630.726562 579.46875 602.484375 572.4375 596.332031 C 534.78125 564.324219 499.132812 520.515625 465.367188 465.160156 C 450.679688 421.226562 560.136719 465.914062 582.230469 521.648438 C 578.964844 487.378906 563.023438 442.441406 534.40625 386.710938 C 528.003906 318.046875 686.789062 559.679688 707.753906 548.257812 C 722.816406 458.382812 872.0625 612.527344 892.023438 630.601562 C 894.40625 632.109375 759.46875 394.367188 827.125 472.191406 C 851.730469 500.433594 882.230469 516.375 918.632812 520.015625 C 881.855469 481.855469 848.214844 436.164062 817.460938 382.816406 C 786.582031 364.242188 771.140625 342.023438 771.269531 316.164062 C 749.175781 184.363281 823.109375 348.171875 852.734375 356.082031 C 854.238281 330.851562 845.953125 298.089844 828.003906 257.796875 C 818.214844 235.828125 778.675781 213.613281 795.621094 182.355469 C 807.292969 160.515625 875.078125 286.542969 885.746094 303.613281 C 940.976562 399.386719 930.433594 284.15625 985.285156 354.574219 C 983.527344 369.261719 984.28125 383.949219 987.671875 398.507812 C 1012.777344 430.265625 1041.773438 462.148438 1074.785156 494.15625 C 1082.566406 493.65625 1071.644531 467.546875 1041.773438 415.707031 C 1061.480469 415.328125 1079.804688 418.71875 1096.625 425.871094 C 1173.320312 541.730469 1227.671875 598.46875 1259.804688 596.082031 C 1207.964844 517.253906 1155.246094 445.578125 1101.394531 381.1875 C 1077.796875 380.433594 1050.433594 378.925781 1019.050781 376.542969 C 1002.355469 360.097656 980.515625 315.539062 959.554688 311.144531 C 936.207031 306.25 917.628906 296.332031 903.820312 281.644531 C 870.304688 222.273438 839.425781 177.710938 811.183594 148.339844 C 795.242188 129.886719 780.558594 128.507812 767.25 144.449219 C 712.019531 197.167969 658.925781 259.679688 608.085938 331.855469 C 588.003906 366.75 569.175781 364.113281 551.601562 323.949219 C 539.929688 297.460938 528.757812 284.28125 517.960938 284.785156 C 481.683594 332.984375 440.636719 383.695312 394.824219 436.917969 C 374.988281 442.066406 355.40625 446.207031 335.953125 449.472656 C 274.570312 500.433594 217.332031 556.667969 164.234375 618.050781 C 177.667969 623.574219 199.128906 607.253906 228.503906 569.472656 C 233.148438 572.609375 239.425781 572.609375 247.332031 569.472656 C 299.425781 503.699219 371.601562 606.375 355.785156 565.957031 C 352.144531 556.792969 337.960938 541.480469 313.230469 520.015625 Z M 313.230469 520.015625 " fill-opacity="1" fill-rule="evenodd"/></g><g transform="matrix(1, 0, 0, 1, 145, 647)"><g clip-path="url(#7bac34ff38)"><g fill="#471e24" fill-opacity="1"><g transform="translate(1.741265, 101.66337)"><g><path d="M 51.0625 -29.1875 L 23.125 -29.1875 C 21.9375 -26.332031 20.921875 -23.804688 20.078125 -21.609375 C 19.242188 -19.410156 18.566406 -17.507812 18.046875 -15.90625 C 17.523438 -14.300781 17.160156 -12.941406 16.953125 -11.828125 C 16.742188 -10.710938 16.640625 -9.804688 16.640625 -9.109375 C 16.640625 -7.148438 17.265625 -5.800781 18.515625 -5.0625 C 19.773438 -4.332031 21.867188 -3.96875 24.796875 -3.96875 L 24.796875 0 L -0.625 0 L -0.625 -3.96875 C 0.976562 -4.1875 2.351562 -4.46875 3.5 -4.8125 C 4.65625 -5.164062 5.664062 -5.65625 6.53125 -6.28125 C 7.40625 -6.90625 8.175781 -7.722656 8.84375 -8.734375 C 9.507812 -9.742188 10.15625 -10.984375 10.78125 -12.453125 L 37.984375 -80.578125 L 42.484375 -80.578125 L 66.234375 -21.5625 C 67.835938 -17.65625 69.234375 -14.53125 70.421875 -12.1875 C 71.609375 -9.851562 72.757812 -8.09375 73.875 -6.90625 C 74.988281 -5.71875 76.191406 -4.945312 77.484375 -4.59375 C 78.773438 -4.25 80.328125 -4.078125 82.140625 -4.078125 L 82.140625 0 L 48.03125 0 L 48.03125 -4.078125 C 51.726562 -4.078125 54.273438 -4.425781 55.671875 -5.125 C 57.066406 -5.820312 57.765625 -6.972656 57.765625 -8.578125 C 57.765625 -9.273438 57.726562 -9.921875 57.65625 -10.515625 C 57.582031 -11.109375 57.457031 -11.753906 57.28125 -12.453125 C 57.113281 -13.148438 56.875 -13.929688 56.5625 -14.796875 C 56.25 -15.671875 55.847656 -16.703125 55.359375 -17.890625 Z M 25.21875 -34.421875 L 49.078125 -34.421875 L 37.46875 -65.296875 Z M 25.21875 -34.421875 "/></g></g></g><g fill="#471e24" fill-opacity="1"><g transform="translate(111.618413, 101.66337)"><g><path d="M 68.859375 -60.375 C 68.859375 -54.789062 67.179688 -50.148438 63.828125 -46.453125 C 60.484375 -42.765625 55.148438 -40.289062 47.828125 -39.03125 L 70.953125 -11.203125 C 72.828125 -8.898438 74.898438 -7.238281 77.171875 -6.21875 C 79.441406 -5.207031 82.144531 -4.457031 85.28125 -3.96875 L 85.28125 0 L 65.09375 0 L 39.453125 -32.859375 C 38.546875 -34.046875 37.691406 -34.988281 36.890625 -35.6875 C 36.085938 -36.382812 35.25 -36.921875 34.375 -37.296875 C 33.5 -37.679688 32.484375 -37.925781 31.328125 -38.03125 C 30.179688 -38.132812 28.804688 -38.1875 27.203125 -38.1875 L 27.203125 -16.421875 C 27.203125 -13.847656 27.359375 -11.738281 27.671875 -10.09375 C 27.984375 -8.457031 28.644531 -7.1875 29.65625 -6.28125 C 30.675781 -5.375 32.144531 -4.757812 34.0625 -4.4375 C 35.976562 -4.125 38.503906 -3.96875 41.640625 -3.96875 L 41.640625 0 L 4.703125 0 L 4.703125 -3.96875 C 7.148438 -4.039062 9.125 -4.25 10.625 -4.59375 C 12.125 -4.945312 13.289062 -5.539062 14.125 -6.375 C 14.957031 -7.21875 15.515625 -8.40625 15.796875 -9.9375 C 16.078125 -11.476562 16.21875 -13.46875 16.21875 -15.90625 L 16.21875 -64.671875 C 16.21875 -67.109375 16.09375 -69.078125 15.84375 -70.578125 C 15.601562 -72.078125 15.117188 -73.265625 14.390625 -74.140625 C 13.660156 -75.015625 12.597656 -75.609375 11.203125 -75.921875 C 9.804688 -76.234375 7.988281 -76.457031 5.75 -76.59375 L 5.75 -80.578125 L 38.609375 -80.578125 C 48.234375 -80.578125 55.679688 -78.796875 60.953125 -75.234375 C 66.222656 -71.679688 68.859375 -66.726562 68.859375 -60.375 Z M 27.203125 -43.421875 L 34.640625 -43.421875 C 41.609375 -43.421875 46.785156 -44.691406 50.171875 -47.234375 C 53.554688 -49.785156 55.25 -53.992188 55.25 -59.859375 C 55.25 -65.503906 53.90625 -69.546875 51.21875 -71.984375 C 48.53125 -74.429688 44.328125 -75.65625 38.609375 -75.65625 L 28.984375 -75.65625 C 27.796875 -75.65625 27.203125 -75.0625 27.203125 -73.875 Z M 27.203125 -43.421875 "/></g></g></g><g fill="#471e24" fill-opacity="1"><g transform="translate(220.658342, 101.66337)"><g><path d="M 82.25 -60.59375 L 77.953125 -60.59375 C 77.742188 -63.59375 77.253906 -66.101562 76.484375 -68.125 C 75.722656 -70.144531 74.625 -71.726562 73.1875 -72.875 C 71.757812 -74.03125 69.960938 -74.851562 67.796875 -75.34375 C 65.640625 -75.832031 63.0625 -76.078125 60.0625 -76.078125 C 57.476562 -76.078125 55.398438 -76.023438 53.828125 -75.921875 C 52.265625 -75.816406 51.0625 -75.625 50.21875 -75.34375 C 49.382812 -75.0625 48.84375 -74.726562 48.59375 -74.34375 C 48.351562 -73.957031 48.234375 -73.453125 48.234375 -72.828125 L 48.234375 -16.84375 C 48.234375 -14.613281 48.390625 -12.695312 48.703125 -11.09375 C 49.023438 -9.488281 49.65625 -8.179688 50.59375 -7.171875 C 51.53125 -6.160156 52.890625 -5.390625 54.671875 -4.859375 C 56.453125 -4.335938 58.804688 -4.039062 61.734375 -3.96875 L 61.734375 0 L 22.1875 0 L 22.1875 -3.96875 C 25.113281 -4.039062 27.484375 -4.335938 29.296875 -4.859375 C 31.109375 -5.390625 32.484375 -6.160156 33.421875 -7.171875 C 34.367188 -8.179688 35 -9.488281 35.3125 -11.09375 C 35.625 -12.695312 35.78125 -14.613281 35.78125 -16.84375 L 35.78125 -72.828125 C 35.78125 -73.453125 35.65625 -73.957031 35.40625 -74.34375 C 35.164062 -74.726562 34.679688 -75.0625 33.953125 -75.34375 C 33.222656 -75.625 32.191406 -75.816406 30.859375 -75.921875 C 29.535156 -76.023438 27.757812 -76.078125 25.53125 -76.078125 C 22.8125 -76.078125 20.28125 -75.972656 17.9375 -75.765625 C 15.601562 -75.554688 13.582031 -74.941406 11.875 -73.921875 C 10.164062 -72.910156 8.785156 -71.359375 7.734375 -69.265625 C 6.691406 -67.179688 6.132812 -64.289062 6.0625 -60.59375 L 2.203125 -60.59375 L 2.203125 -80.578125 L 81.203125 -80.578125 Z M 82.25 -60.59375 "/></g></g></g><g fill="#471e24" fill-opacity="1"><g transform="translate(330.640033, 101.66337)"><g/></g></g><g fill="#471e24" fill-opacity="1"><g transform="translate(389.76547, 101.66337)"><g><path d="M 3.96875 0 L 3.96875 -3.96875 C 6.695312 -4.039062 8.878906 -4.25 10.515625 -4.59375 C 12.148438 -4.945312 13.40625 -5.539062 14.28125 -6.375 C 15.15625 -7.21875 15.75 -8.40625 16.0625 -9.9375 C 16.375 -11.476562 16.53125 -13.46875 16.53125 -15.90625 L 16.53125 -64.671875 C 16.53125 -67.109375 16.40625 -69.078125 16.15625 -70.578125 C 15.914062 -72.078125 15.429688 -73.265625 14.703125 -74.140625 C 13.972656 -75.015625 12.910156 -75.609375 11.515625 -75.921875 C 10.117188 -76.234375 8.300781 -76.457031 6.0625 -76.59375 L 6.0625 -80.578125 L 37.359375 -80.578125 C 46.773438 -80.578125 54.097656 -78.898438 59.328125 -75.546875 C 64.554688 -72.203125 67.171875 -67.492188 67.171875 -61.421875 C 67.171875 -56.816406 65.722656 -53.050781 62.828125 -50.125 C 59.941406 -47.195312 55.359375 -44.789062 49.078125 -42.90625 L 49.078125 -42.484375 C 51.242188 -42.273438 53.128906 -42.03125 54.734375 -41.75 C 56.335938 -41.46875 57.765625 -41.132812 59.015625 -40.75 C 60.273438 -40.375 61.441406 -39.90625 62.515625 -39.34375 C 63.597656 -38.78125 64.664062 -38.15625 65.71875 -37.46875 C 71.925781 -33.070312 75.03125 -27.554688 75.03125 -20.921875 C 75.03125 -17.222656 74 -13.785156 71.9375 -10.609375 C 69.882812 -7.441406 67.007812 -4.953125 63.3125 -3.140625 C 62.125 -2.515625 60.898438 -2.007812 59.640625 -1.625 C 58.390625 -1.238281 56.925781 -0.921875 55.25 -0.671875 C 53.570312 -0.429688 51.632812 -0.257812 49.4375 -0.15625 C 47.238281 -0.0507812 44.640625 0 41.640625 0 Z M 41.953125 -4.5 C 54.585938 -4.5 60.90625 -9.90625 60.90625 -20.71875 C 60.90625 -28.601562 57.660156 -34.113281 51.171875 -37.25 C 50.054688 -37.738281 48.972656 -38.15625 47.921875 -38.5 C 46.878906 -38.851562 45.660156 -39.113281 44.265625 -39.28125 C 42.867188 -39.457031 41.210938 -39.582031 39.296875 -39.65625 C 37.378906 -39.726562 35.023438 -39.765625 32.234375 -39.765625 L 27.515625 -39.765625 L 27.515625 -16.421875 C 27.515625 -12.171875 28.628906 -9.117188 30.859375 -7.265625 C 33.097656 -5.421875 36.796875 -4.5 41.953125 -4.5 Z M 33.375 -45 C 35.539062 -45 37.351562 -45.03125 38.8125 -45.09375 C 40.28125 -45.164062 41.535156 -45.289062 42.578125 -45.46875 C 43.628906 -45.644531 44.554688 -45.890625 45.359375 -46.203125 C 46.160156 -46.515625 46.984375 -46.945312 47.828125 -47.5 C 50.054688 -48.894531 51.640625 -50.566406 52.578125 -52.515625 C 53.523438 -54.472656 54 -57.023438 54 -60.171875 C 54 -65.679688 52.65625 -69.640625 49.96875 -72.046875 C 47.28125 -74.453125 43.078125 -75.65625 37.359375 -75.65625 L 29.296875 -75.65625 C 28.109375 -75.65625 27.515625 -75.0625 27.515625 -73.875 L 27.515625 -45 Z M 33.375 -45 "/></g></g></g><g fill="#471e24" fill-opacity="1"><g transform="translate(495.666069, 101.66337)"><g><path d="M 11.921875 -67.59375 C 10.878906 -69.40625 9.90625 -70.882812 9 -72.03125 C 8.09375 -73.1875 7.164062 -74.113281 6.21875 -74.8125 C 5.28125 -75.507812 4.285156 -75.976562 3.234375 -76.21875 C 2.191406 -76.46875 0.941406 -76.59375 -0.515625 -76.59375 L -0.515625 -80.578125 L 32.4375 -80.578125 L 32.4375 -76.59375 C 28.945312 -76.59375 26.488281 -76.332031 25.0625 -75.8125 C 23.632812 -75.289062 22.921875 -74.367188 22.921875 -73.046875 C 22.921875 -71.578125 23.722656 -69.484375 25.328125 -66.765625 L 41.546875 -39.03125 L 41.953125 -39.03125 L 53.78125 -58.90625 C 56.019531 -62.675781 57.609375 -65.640625 58.546875 -67.796875 C 59.484375 -69.960938 59.953125 -71.710938 59.953125 -73.046875 C 59.953125 -74.367188 59.445312 -75.289062 58.4375 -75.8125 C 57.425781 -76.332031 55.664062 -76.59375 53.15625 -76.59375 L 53.15625 -80.578125 L 77.125 -80.578125 L 77.125 -76.59375 C 75.65625 -76.59375 74.34375 -76.382812 73.1875 -75.96875 C 72.039062 -75.550781 70.835938 -74.710938 69.578125 -73.453125 C 68.328125 -72.203125 66.953125 -70.457031 65.453125 -68.21875 C 63.953125 -65.988281 62.117188 -63.0625 59.953125 -59.4375 L 43.84375 -32.234375 L 43.84375 -19.78125 C 43.84375 -16.363281 43.960938 -13.625 44.203125 -11.5625 C 44.453125 -9.5 44.976562 -7.910156 45.78125 -6.796875 C 46.582031 -5.679688 47.734375 -4.929688 49.234375 -4.546875 C 50.734375 -4.160156 52.738281 -3.96875 55.25 -3.96875 L 55.25 0 L 21.34375 0 L 21.34375 -3.96875 C 23.851562 -3.96875 25.859375 -4.160156 27.359375 -4.546875 C 28.859375 -4.929688 30.007812 -5.664062 30.8125 -6.75 C 31.613281 -7.832031 32.15625 -9.347656 32.4375 -11.296875 C 32.71875 -13.253906 32.859375 -15.835938 32.859375 -19.046875 L 32.859375 -31.8125 Z M 11.921875 -67.59375 "/></g></g></g><g fill="#471e24" fill-opacity="1"><g transform="translate(597.38095, 101.66337)"><g/></g></g><g fill="#471e24" fill-opacity="1"><g transform="translate(656.506366, 101.66337)"><g><path d="M 27.203125 -19.78125 C 27.203125 -16.289062 27.34375 -13.53125 27.625 -11.5 C 27.90625 -9.476562 28.445312 -7.910156 29.25 -6.796875 C 30.050781 -5.679688 31.203125 -4.945312 32.703125 -4.59375 C 34.203125 -4.25 36.171875 -4.039062 38.609375 -3.96875 L 38.609375 0 L 4.703125 0 L 4.703125 -3.96875 C 7.148438 -4.039062 9.125 -4.269531 10.625 -4.65625 C 12.125 -5.039062 13.289062 -5.753906 14.125 -6.796875 C 14.957031 -7.847656 15.515625 -9.332031 15.796875 -11.25 C 16.078125 -13.164062 16.21875 -15.765625 16.21875 -19.046875 L 16.21875 -61.53125 C 16.21875 -64.457031 16.09375 -66.878906 15.84375 -68.796875 C 15.601562 -70.710938 15.117188 -72.226562 14.390625 -73.34375 C 13.660156 -74.46875 12.597656 -75.253906 11.203125 -75.703125 C 9.804688 -76.160156 7.988281 -76.457031 5.75 -76.59375 L 5.75 -80.578125 L 37.5625 -80.578125 L 37.5625 -76.59375 C 35.332031 -76.53125 33.535156 -76.253906 32.171875 -75.765625 C 30.816406 -75.273438 29.769531 -74.453125 29.03125 -73.296875 C 28.300781 -72.148438 27.8125 -70.5625 27.5625 -68.53125 C 27.320312 -66.507812 27.203125 -63.929688 27.203125 -60.796875 Z M 27.203125 -19.78125 "/></g></g></g><g fill="#471e24" fill-opacity="1"><g transform="translate(729.026031, 101.66337)"><g><path d="M 44.375 -16.015625 L 62.78125 -61.421875 C 63.832031 -64.003906 64.566406 -66.023438 64.984375 -67.484375 C 65.398438 -68.953125 65.609375 -70.28125 65.609375 -71.46875 C 65.609375 -73.351562 65.03125 -74.675781 63.875 -75.4375 C 62.726562 -76.207031 60.585938 -76.59375 57.453125 -76.59375 L 57.453125 -80.578125 L 82.875 -80.578125 L 82.875 -76.59375 C 81.269531 -76.382812 79.890625 -76.101562 78.734375 -75.75 C 77.585938 -75.40625 76.578125 -74.921875 75.703125 -74.296875 C 74.835938 -73.671875 74.070312 -72.847656 73.40625 -71.828125 C 72.738281 -70.816406 72.09375 -69.582031 71.46875 -68.125 L 43.109375 1.046875 L 39.453125 1.046875 L 12.453125 -64.140625 C 11.546875 -66.234375 10.65625 -68.046875 9.78125 -69.578125 C 8.90625 -71.117188 7.945312 -72.375 6.90625 -73.34375 C 5.863281 -74.320312 4.675781 -75.054688 3.34375 -75.546875 C 2.019531 -76.035156 0.453125 -76.351562 -1.359375 -76.5 L -1.359375 -80.578125 L 32.75 -80.578125 L 32.75 -76.5 C 30.800781 -76.5 29.210938 -76.410156 27.984375 -76.234375 C 26.765625 -76.054688 25.804688 -75.773438 25.109375 -75.390625 C 24.410156 -75.003906 23.921875 -74.53125 23.640625 -73.96875 C 23.367188 -73.414062 23.234375 -72.789062 23.234375 -72.09375 C 23.234375 -71.113281 23.40625 -69.976562 23.75 -68.6875 C 24.101562 -67.40625 24.765625 -65.539062 25.734375 -63.09375 Z M 44.375 -16.015625 "/></g></g></g><g fill="#471e24" fill-opacity="1"><g transform="translate(836.914926, 101.66337)"><g><path d="M 49.5 -81.625 C 55.632812 -81.625 61.351562 -80.539062 66.65625 -78.375 C 71.957031 -76.207031 76.5625 -73.238281 80.46875 -69.46875 C 84.375 -65.707031 87.441406 -61.28125 89.671875 -56.1875 C 91.910156 -51.09375 93.03125 -45.582031 93.03125 -39.65625 C 93.03125 -34.007812 91.894531 -28.707031 89.625 -23.75 C 87.351562 -18.800781 84.265625 -14.492188 80.359375 -10.828125 C 76.453125 -7.171875 71.847656 -4.273438 66.546875 -2.140625 C 61.242188 -0.015625 55.5625 1.046875 49.5 1.046875 C 43.425781 1.046875 37.738281 -0.015625 32.4375 -2.140625 C 27.132812 -4.273438 22.53125 -7.171875 18.625 -10.828125 C 14.71875 -14.492188 11.628906 -18.800781 9.359375 -23.75 C 7.097656 -28.707031 5.96875 -34.007812 5.96875 -39.65625 C 5.96875 -45.582031 7.082031 -51.09375 9.3125 -56.1875 C 11.539062 -61.28125 14.609375 -65.707031 18.515625 -69.46875 C 22.421875 -73.238281 27.023438 -76.207031 32.328125 -78.375 C 37.628906 -80.539062 43.351562 -81.625 49.5 -81.625 Z M 49.5 -4.703125 C 54.101562 -4.703125 58.234375 -5.503906 61.890625 -7.109375 C 65.554688 -8.710938 68.695312 -11.015625 71.3125 -14.015625 C 73.925781 -17.015625 75.929688 -20.660156 77.328125 -24.953125 C 78.722656 -29.242188 79.421875 -34.039062 79.421875 -39.34375 C 79.421875 -44.925781 78.722656 -49.96875 77.328125 -54.46875 C 75.929688 -58.96875 73.941406 -62.800781 71.359375 -65.96875 C 68.785156 -69.144531 65.648438 -71.585938 61.953125 -73.296875 C 58.253906 -75.003906 54.101562 -75.859375 49.5 -75.859375 C 44.894531 -75.859375 40.742188 -75.003906 37.046875 -73.296875 C 33.347656 -71.585938 30.207031 -69.144531 27.625 -65.96875 C 25.039062 -62.800781 23.050781 -58.96875 21.65625 -54.46875 C 20.257812 -49.96875 19.5625 -44.925781 19.5625 -39.34375 C 19.5625 -34.039062 20.257812 -29.242188 21.65625 -24.953125 C 23.050781 -20.660156 25.039062 -17.015625 27.625 -14.015625 C 30.207031 -11.015625 33.347656 -8.710938 37.046875 -7.109375 C 40.742188 -5.503906 44.894531 -4.703125 49.5 -4.703125 Z M 49.5 -4.703125 "/></g></g></g><g fill="#471e24" fill-opacity="1"><g transform="translate(963.639466, 101.66337)"><g><path d="M 68.859375 -60.375 C 68.859375 -54.789062 67.179688 -50.148438 63.828125 -46.453125 C 60.484375 -42.765625 55.148438 -40.289062 47.828125 -39.03125 L 70.953125 -11.203125 C 72.828125 -8.898438 74.898438 -7.238281 77.171875 -6.21875 C 79.441406 -5.207031 82.144531 -4.457031 85.28125 -3.96875 L 85.28125 0 L 65.09375 0 L 39.453125 -32.859375 C 38.546875 -34.046875 37.691406 -34.988281 36.890625 -35.6875 C 36.085938 -36.382812 35.25 -36.921875 34.375 -37.296875 C 33.5 -37.679688 32.484375 -37.925781 31.328125 -38.03125 C 30.179688 -38.132812 28.804688 -38.1875 27.203125 -38.1875 L 27.203125 -16.421875 C 27.203125 -13.847656 27.359375 -11.738281 27.671875 -10.09375 C 27.984375 -8.457031 28.644531 -7.1875 29.65625 -6.28125 C 30.675781 -5.375 32.144531 -4.757812 34.0625 -4.4375 C 35.976562 -4.125 38.503906 -3.96875 41.640625 -3.96875 L 41.640625 0 L 4.703125 0 L 4.703125 -3.96875 C 7.148438 -4.039062 9.125 -4.25 10.625 -4.59375 C 12.125 -4.945312 13.289062 -5.539062 14.125 -6.375 C 14.957031 -7.21875 15.515625 -8.40625 15.796875 -9.9375 C 16.078125 -11.476562 16.21875 -13.46875 16.21875 -15.90625 L 16.21875 -64.671875 C 16.21875 -67.109375 16.09375 -69.078125 15.84375 -70.578125 C 15.601562 -72.078125 15.117188 -73.265625 14.390625 -74.140625 C 13.660156 -75.015625 12.597656 -75.609375 11.203125 -75.921875 C 9.804688 -76.234375 7.988281 -76.457031 5.75 -76.59375 L 5.75 -80.578125 L 38.609375 -80.578125 C 48.234375 -80.578125 55.679688 -78.796875 60.953125 -75.234375 C 66.222656 -71.679688 68.859375 -66.726562 68.859375 -60.375 Z M 27.203125 -43.421875 L 34.640625 -43.421875 C 41.609375 -43.421875 46.785156 -44.691406 50.171875 -47.234375 C 53.554688 -49.785156 55.25 -53.992188 55.25 -59.859375 C 55.25 -65.503906 53.90625 -69.546875 51.21875 -71.984375 C 48.53125 -74.429688 44.328125 -75.65625 38.609375 -75.65625 L 28.984375 -75.65625 C 27.796875 -75.65625 27.203125 -75.0625 27.203125 -73.875 Z M 27.203125 -43.421875 "/></g></g></g><g fill="#471e24" fill-opacity="1"><g transform="translate(1071.528277, 101.66337)"><g><path d="M 11.921875 -67.59375 C 10.878906 -69.40625 9.90625 -70.882812 9 -72.03125 C 8.09375 -73.1875 7.164062 -74.113281 6.21875 -74.8125 C 5.28125 -75.507812 4.285156 -75.976562 3.234375 -76.21875 C 2.191406 -76.46875 0.941406 -76.59375 -0.515625 -76.59375 L -0.515625 -80.578125 L 32.4375 -80.578125 L 32.4375 -76.59375 C 28.945312 -76.59375 26.488281 -76.332031 25.0625 -75.8125 C 23.632812 -75.289062 22.921875 -74.367188 22.921875 -73.046875 C 22.921875 -71.578125 23.722656 -69.484375 25.328125 -66.765625 L 41.546875 -39.03125 L 41.953125 -39.03125 L 53.78125 -58.90625 C 56.019531 -62.675781 57.609375 -65.640625 58.546875 -67.796875 C 59.484375 -69.960938 59.953125 -71.710938 59.953125 -73.046875 C 59.953125 -74.367188 59.445312 -75.289062 58.4375 -75.8125 C 57.425781 -76.332031 55.664062 -76.59375 53.15625 -76.59375 L 53.15625 -80.578125 L 77.125 -80.578125 L 77.125 -76.59375 C 75.65625 -76.59375 74.34375 -76.382812 73.1875 -75.96875 C 72.039062 -75.550781 70.835938 -74.710938 69.578125 -73.453125 C 68.328125 -72.203125 66.953125 -70.457031 65.453125 -68.21875 C 63.953125 -65.988281 62.117188 -63.0625 59.953125 -59.4375 L 43.84375 -32.234375 L 43.84375 -19.78125 C 43.84375 -16.363281 43.960938 -13.625 44.203125 -11.5625 C 44.453125 -9.5 44.976562 -7.910156 45.78125 -6.796875 C 46.582031 -5.679688 47.734375 -4.929688 49.234375 -4.546875 C 50.734375 -4.160156 52.738281 -3.96875 55.25 -3.96875 L 55.25 0 L 21.34375 0 L 21.34375 -3.96875 C 23.851562 -3.96875 25.859375 -4.160156 27.359375 -4.546875 C 28.859375 -4.929688 30.007812 -5.664062 30.8125 -6.75 C 31.613281 -7.832031 32.15625 -9.347656 32.4375 -11.296875 C 32.71875 -13.253906 32.859375 -15.835938 32.859375 -19.046875 L 32.859375 -31.8125 Z M 11.921875 -67.59375 "/></g></g></g></g></g></svg>